# xmcd CD database file
#
# Track frame offsets:
#	150
#	33352
#	86672
#	109350
#	140810
#	197805
#	234420
#
# Disc length: 3994 seconds
#
# Revision: 0
# Processed by: cddbd v1.4PL0 Copyright (c) Steve Scherf et al.
# Submitted via: CDex 1.50
#
DISCID=600f9807
DTITLE=Sean Craig - Underglass
DYEAR=2002
DGENRE=Jazz
TTITLE0=Whole operation
TTITLE1=Dolphy dance
TTITLE2=After thought
TTITLE3=Lago del gallo
TTITLE4=Nature boy
TTITLE5=The procrastinator
TTITLE6=In remembrance
EXTD=YEAR: 2002
EXTT0=
EXTT1=
EXTT2=
EXTT3=
EXTT4=
EXTT5=
EXTT6=
PLAYORDER=
